<?xml version="1.0" standalone="no"?>
<!DOCTYPE svg PUBLIC "-//W3C//DTD SVG 20010904//EN"
 "http://www.w3.org/TR/2001/REC-SVG-20010904/DTD/svg10.dtd">
<svg version="1.0" xmlns="http://www.w3.org/2000/svg"
 width="1200.000000pt" height="1200.000000pt" viewBox="0 0 1200.000000 1200.000000"
 preserveAspectRatio="xMidYMid meet">
<metadata>
Created by potrace 1.14, written by Peter Selinger 2001-2017
</metadata>
<g transform="translate(0.000000,1200.000000) scale(0.100000,-0.100000)"
fill="#000000" stroke="none">
<path d="M6029 10626 c-2 -2 -87 -6 -189 -10 -102 -3 -203 -8 -225 -10 -22 -3
-69 -7 -105 -11 -36 -3 -105 -12 -155 -20 -49 -7 -110 -17 -135 -20 -25 -4
-63 -10 -85 -15 -22 -5 -53 -11 -70 -14 -56 -10 -279 -67 -385 -97 -282 -83
-643 -233 -905 -379 -33 -18 -69 -38 -80 -44 -11 -6 -23 -15 -26 -19 -3 -5 -8
-7 -10 -6 -2 2 -15 -4 -29 -13 -86 -54 -226 -143 -230 -148 -3 -3 -34 -25 -70
-49 -71 -49 -285 -214 -311 -240 -8 -9 -35 -32 -60 -51 -46 -36 -371 -358
-424 -420 -54 -62 -199 -243 -241 -300 -97 -131 -245 -352 -267 -400 -4 -8
-17 -31 -28 -50 -105 -173 -243 -466 -336 -715 -110 -294 -207 -686 -242 -975
-6 -47 -13 -103 -16 -125 -15 -118 -20 -248 -20 -500 0 -295 5 -376 31 -570
23 -178 23 -176 28 -194 3 -9 8 -36 11 -61 3 -25 8 -52 10 -60 2 -8 7 -28 9
-45 3 -16 21 -93 40 -170 108 -437 280 -860 504 -1240 33 -56 168 -268 184
-290 4 -5 45 -59 89 -120 86 -116 184 -237 259 -320 83 -92 344 -350 410 -405
36 -30 67 -57 70 -61 3 -3 39 -32 80 -64 41 -33 77 -62 80 -66 3 -3 26 -20 52
-37 25 -18 52 -38 60 -45 7 -7 72 -52 143 -99 286 -189 570 -335 910 -468 83
-33 171 -63 315 -108 173 -54 515 -128 700 -152 47 -6 99 -12 115 -15 17 -2
64 -6 105 -10 41 -3 98 -8 125 -11 60 -6 516 -6 565 0 19 2 73 7 120 11 84 6
127 11 185 20 17 3 50 7 75 10 130 16 403 72 560 115 606 167 1206 474 1670
854 184 151 187 153 365 331 182 182 205 207 305 330 36 44 67 82 70 85 11 11
148 197 166 225 10 17 21 32 24 35 8 7 119 182 162 255 252 427 453 951 547
1425 30 153 70 429 78 550 15 208 8 706 -12 855 -2 17 -6 55 -9 85 -4 30 -8
69 -11 85 -3 17 -7 44 -9 60 -3 17 -10 57 -16 90 -6 33 -13 74 -16 90 -33 200
-183 696 -264 872 -11 24 -20 45 -20 47 0 19 -144 310 -228 461 -59 107 -225
367 -254 399 -10 11 -18 23 -18 27 0 4 -6 14 -13 21 -7 7 -26 31 -42 53 -38
51 -190 240 -230 284 -65 73 -373 379 -424 421 -30 25 -59 50 -65 55 -19 18
-159 129 -201 160 -22 16 -45 34 -52 40 -26 23 -281 192 -348 230 -22 12 -69
39 -105 60 -342 195 -758 360 -1162 460 -160 40 -412 87 -528 100 -25 2 -70 7
-100 11 -83 9 -122 12 -285 19 -82 4 -153 9 -156 11 -3 2 -8 2 -10 0z"/>
</g>
</svg>
